# xmcd CD database file
#
# Track frame offsets:
#	150
#	20362
#	44120
#	67400
#	81255
#	101755
#	124690
#	133577
#	152050
#	174807
#	185672
#	208132
#
# Disc length: 3075 seconds
#
# Revision: 0
# Processed by: cddbd v1.5.2PL0 Copyright (c) Steve Scherf et al.
# Submitted via: CDex 1.51
#
DISCID=af0c010c
DTITLE=Michael Gettel - Skywatching   (Narada Equinox)
DYEAR=1993
DGENRE=New Age
TTITLE0=Anasazi Road
TTITLE1=Skywatching - featuring Sandy Wilson on vocals
TTITLE2=Windows and Walls
TTITLE3=Prélude: First Snow - featuring David Lanz
TTITLE4=Sacred Site (ruins)
TTITLE5=Wellspring
TTITLE6=Prelude: Kiva
TTITLE7=Sipapu
TTITLE8=Tekohananae (to the Morning)
TTITLE9=Prelude: Stillness
TTITLE10=Scent of rain
TTITLE11=Where the road meets the Sky
EXTD=YEAR: 1993
EXTT0=
EXTT1=
EXTT2=
EXTT3=
EXTT4=
EXTT5=
EXTT6=
EXTT7=
EXTT8=
EXTT9=
EXTT10=
EXTT11=
PLAYORDER=
